<svg version="1.0" xmlns="http://www.w3.org/2000/svg"
     width="120pt" height="120pt" viewBox="0 0 1280 1280"
     preserveAspectRatio="xMidYMid meet">
    <g transform="translate(0,1280) scale(0.1,-0.1)"
       fill="#000000" stroke="none">
<path d="M4500 12793 c-19 -1 -87 -8 -150 -14 -718 -67 -1435 -371 -1990 -845
-47 -39 -110 -94 -140 -122 l-55 -49 -68 58 c-266 230 -602 340 -937 309 -263
-25 -470 -106 -676 -266 -252 -195 -421 -486 -468 -807 -41 -272 4 -531 135
-775 175 -329 492 -568 849 -642 l85 -17 -1 -44 c0 -24 -6 -129 -11 -234 -57
-1049 325 -2044 1070 -2787 l128 -128 -59 -87 c-446 -665 -811 -1362 -990
-1888 -106 -311 -151 -536 -159 -791 -10 -317 43 -510 180 -661 168 -184 420
-322 936 -514 l64 -24 -2 -75 c-18 -702 -19 -860 -11 -1121 12 -374 30 -537
77 -699 30 -104 59 -156 118 -208 148 -130 483 -222 910 -250 218 -15 572 33
820 109 318 98 430 244 501 649 24 142 30 612 10 845 -8 98 -14 181 -12 182 1
2 52 -2 112 -8 60 -6 148 -8 197 -5 50 4 87 3 87 -2 0 -5 -7 -76 -17 -158 -21
-190 -24 -678 -5 -807 19 -130 55 -264 93 -342 40 -83 166 -217 269 -284 152
-100 416 -206 621 -251 347 -76 804 -38 1059 88 90 45 200 147 229 214 41 96
65 257 82 540 12 193 6 1205 -7 1459 l-7 115 44 13 c119 35 361 131 504 200
411 199 581 361 645 616 102 410 -8 968 -330 1675 -184 405 -520 992 -825
1440 -51 74 -95 140 -99 147 -4 7 33 54 89 114 358 383 621 827 790 1334 95
285 151 557 176 857 10 118 8 636 -2 678 -3 11 9 15 56 17 355 17 677 198 870
487 242 365 244 841 5 1206 -265 402 -758 587 -1215 455 -161 -47 -333 -143
-443 -249 l-43 -41 -20 25 c-195 242 -486 517 -739 696 -619 440 -1377 679
-2130 672 -91 -1 -181 -3 -200 -5z"/>
</g>
</svg>
