<svg version="1.0" xmlns="http://www.w3.org/2000/svg"
     width="64pt" height="64pt" viewBox="0 0 1280 1280"
     preserveAspectRatio="xMidYMid meet">
    <g transform="translate(0,1280) scale(0.1,-0.1)"
       fill="#000000" stroke="none">
<path d="M10160 11524 c-34 -48 -65 -96 -69 -108 -6 -15 -10 -6 -15 37 -4 31
-11 57 -15 57 -11 0 -71 -128 -71 -153 0 -40 -22 -53 -140 -80 -103 -23 -143
-39 -369 -151 -274 -135 -357 -190 -453 -299 -77 -87 -184 -255 -306 -478
-134 -247 -212 -427 -211 -488 2 -64 -17 -103 -107 -223 -64 -85 -96 -117
-171 -172 -51 -37 -93 -71 -93 -75 0 -5 14 -14 30 -21 17 -7 30 -15 30 -18 0
-3 -28 -36 -61 -74 -34 -38 -58 -72 -55 -75 4 -4 30 3 58 15 28 12 53 20 55
18 2 -1 -2 -26 -9 -55 -9 -38 -9 -82 -1 -179 10 -107 9 -145 -6 -248 l-17
-120 -43 -40 c-24 -21 -50 -43 -57 -47 -22 -13 -8 -25 36 -32 22 -4 40 -9 40
-11 0 -45 72 -346 110 -458 27 -82 49 -151 47 -152 -1 -1 -40 -13 -87 -27 -96
-29 -278 -62 -583 -107 -246 -36 -254 -36 -852 30 -334 36 -395 40 -625 40
-230 0 -283 -3 -535 -34 -257 -32 -329 -46 -865 -166 -322 -72 -675 -151 -785
-177 -180 -41 -221 -47 -410 -58 l-210 -13 -205 30 -205 29 -115 114 c-63 63
-119 115 -124 115 -8 0 -2 -90 11 -154 6 -27 4 -26 -93 38 -85 57 -106 77
-149 141 -27 41 -54 74 -59 72 -5 -2 -17 -24 -25 -50 l-16 -47 -50 36 c-28 20
-95 66 -150 102 -261 170 -513 361 -617 469 -89 92 -251 299 -372 475 -66 98
-124 177 -128 178 -4 0 -8 -25 -10 -55 l-3 -55 -48 38 c-35 28 -75 81 -146
193 -90 141 -102 167 -149 309 -28 85 -67 217 -87 293 l-35 139 -6 346 c-4
232 -11 377 -21 437 -17 103 -21 114 -39 91 -15 -21 -20 -14 -29 44 -4 25 -11
52 -16 62 -9 17 -69 58 -85 58 -5 0 -29 -25 -53 -56 -37 -47 -52 -81 -88 -198
-72 -234 -93 -360 -93 -554 l0 -166 -40 39 c-22 21 -43 35 -47 32 -4 -4 1 -47
11 -95 34 -158 53 -262 49 -262 -3 0 -24 14 -48 30 -37 26 -65 37 -65 27 0 -7
113 -336 159 -464 57 -158 158 -382 234 -518 28 -49 66 -124 86 -165 39 -81
203 -305 338 -462 107 -123 321 -302 538 -450 94 -63 300 -215 460 -337 159
-123 352 -266 428 -319 136 -95 138 -97 197 -192 45 -73 63 -113 75 -169 8
-40 15 -76 15 -81 0 -5 -24 -37 -53 -72 -30 -35 -106 -145 -171 -245 -114
-176 -118 -186 -177 -360 -56 -166 -63 -197 -104 -471 -36 -233 -45 -319 -45
-424 l0 -130 -85 -167 c-86 -168 -97 -201 -155 -461 -7 -30 -21 -75 -31 -100
-10 -25 -47 -129 -83 -232 -136 -392 -346 -736 -565 -928 -40 -36 -124 -113
-186 -172 l-112 -107 -16 -78 c-28 -133 -29 -167 -18 -583 12 -404 68 -1276
92 -1430 16 -96 37 -128 155 -232 67 -59 133 -104 227 -156 113 -63 142 -74
207 -83 41 -6 96 -17 121 -25 45 -14 48 -14 95 14 35 20 51 37 58 60 8 31 11
32 60 32 85 1 218 25 264 49 40 20 92 85 107 132 3 10 -15 65 -40 124 l-46
106 25 34 c45 59 37 94 -43 189 -38 44 -82 93 -98 108 -28 26 -143 70 -271
103 -109 28 -112 30 -112 94 0 31 -9 148 -20 261 -11 113 -20 272 -20 354 0
142 2 155 32 248 36 109 60 144 244 350 96 108 131 137 427 358 436 327 534
415 669 600 58 80 156 225 219 322 128 200 121 198 134 34 10 -135 -10 -210
-86 -331 -31 -50 -87 -152 -124 -226 -62 -122 -68 -139 -66 -189 4 -100 219
-867 274 -975 19 -38 63 -106 97 -149 57 -72 67 -92 111 -225 26 -80 67 -191
91 -246 l44 -99 137 -83 137 -82 120 -17 121 -17 74 23 c69 22 78 28 120 80
39 50 54 61 125 90 44 18 84 37 88 44 4 6 12 43 18 81 11 66 10 73 -13 118
-23 47 -23 48 -7 110 l17 62 -38 90 c-21 50 -43 96 -49 104 -6 7 -42 35 -81
61 -56 37 -97 55 -204 86 l-134 39 -43 65 c-56 84 -132 322 -175 545 -16 88
-32 169 -35 180 -4 16 49 72 253 266 142 135 308 291 369 346 l110 102 48 113
c27 62 88 210 136 328 48 118 114 267 146 330 41 82 67 150 89 234 33 131 30
128 132 150 29 7 31 5 37 -31 14 -78 6 -73 129 -73 163 0 301 -40 557 -160
273 -129 662 -259 1015 -341 227 -52 292 -62 515 -84 249 -25 262 -25 552 -13
164 6 301 9 304 5 4 -4 38 -104 76 -224 59 -188 75 -257 118 -503 27 -157 77
-406 110 -553 40 -183 72 -363 100 -565 23 -163 56 -389 75 -502 l33 -205 107
-245 c114 -264 171 -360 444 -748 l114 -163 91 -46 c136 -69 259 -92 492 -93
175 0 181 1 202 23 11 12 26 43 33 70 l13 47 117 0 116 0 50 53 c60 63 72 108
48 176 -21 60 -19 70 15 124 35 55 37 84 13 188 -13 58 -28 90 -70 150 -49 71
-58 79 -118 103 -48 19 -83 26 -132 26 -92 0 -290 19 -333 32 -19 6 -46 20
-59 32 -64 58 -223 293 -242 358 -28 99 -37 255 -29 488 5 129 9 282 10 338 0
64 4 102 10 100 35 -11 105 -86 168 -177 59 -87 84 -138 142 -286 38 -99 91
-247 116 -330 50 -162 113 -299 176 -384 31 -41 73 -75 182 -146 l141 -92 128
-12 c70 -6 167 -11 215 -11 83 0 90 2 114 28 32 34 48 65 48 91 0 18 6 21 44
21 84 0 245 86 287 152 19 31 20 43 14 223 -8 255 -14 318 -31 328 -8 5 -45
32 -82 60 -90 68 -220 119 -328 127 -58 4 -96 13 -135 33 -48 23 -58 33 -86
90 -17 35 -70 196 -117 358 -110 376 -109 338 -15 821 38 200 75 388 80 418 6
30 53 215 105 410 100 377 101 381 277 755 92 197 136 341 173 575 22 140 25
207 36 679 12 511 12 530 -11 795 -17 211 -30 307 -57 431 -67 305 -104 487
-104 506 0 24 15 24 79 -2 40 -17 49 -25 40 -35 -5 -7 -17 -61 -25 -121 -16
-125 -17 -143 -6 -143 5 0 14 54 22 121 17 153 22 160 108 152 l62 -6 0 -86
c0 -88 18 -172 38 -179 8 -2 7 10 -3 38 -9 26 -15 78 -15 131 l0 89 49 0 c27
0 56 3 65 6 13 5 16 -1 16 -30 0 -47 48 -141 94 -185 20 -19 36 -30 36 -25 0
6 -11 21 -25 34 -42 40 -85 128 -85 176 0 39 2 42 33 48 18 3 94 26 169 50
l136 43 182 148 c156 128 186 156 208 201 26 54 41 64 99 64 46 0 63 9 63 34
0 13 3 25 6 28 7 8 187 -66 223 -92 16 -11 35 -36 41 -55 16 -49 31 -44 16 5
-15 51 -65 86 -188 132 -69 26 -86 36 -82 50 2 9 9 42 14 73 5 32 11 60 13 62
2 2 38 -1 78 -8 78 -12 181 -60 268 -126 53 -40 71 -34 21 7 -71 59 -211 127
-275 134 -99 12 -95 8 -95 91 0 51 -6 86 -20 116 -28 63 -27 66 28 59 93 -13
206 -75 239 -130 15 -27 33 -40 33 -24 0 15 -53 79 -82 99 -58 39 -158 75
-209 75 -45 0 -47 1 -63 40 -9 22 -29 59 -46 82 -28 38 -29 43 -14 51 17 10
300 2 377 -9 21 -4 37 -2 37 4 0 15 -247 36 -349 29 l-91 -6 -113 112 c-105
104 -336 308 -357 315 -5 2 8 36 29 75 37 69 39 79 50 210 l11 138 -50 202
c-31 127 -65 241 -93 307 l-45 105 -11 190 c-6 105 -18 231 -27 280 -18 104
-42 143 -176 281 l-78 80 40 39 c21 21 37 41 35 45 -3 4 -28 2 -57 -4 -35 -8
-68 -9 -95 -4 l-43 9 40 54 c36 49 48 75 35 75 -2 0 -30 -11 -60 -25 -71 -31
-212 -41 -375 -27 -103 9 -139 7 -335 -17 l-220 -27 -3 28 c-2 16 8 46 24 73
14 25 24 49 20 52 -3 3 -32 -13 -65 -35 -33 -23 -62 -42 -65 -42 -3 0 -6 18
-6 39 0 22 -4 42 -9 45 -5 3 -37 -33 -71 -80z"/>
</g>
</svg>
