<svg version="1.0" xmlns="http://www.w3.org/2000/svg"
     width="64pt" height="64pt" viewBox="0 0 1280 1280"
     preserveAspectRatio="xMidYMid meet">
    <g transform="translate(0,1280) scale(0.1,-0.1)"
       fill="#000000" stroke="none">
<path d="M7201 12788 c-19 -5 -134 -41 -255 -80 -122 -38 -490 -155 -818 -259
-329 -104 -868 -274 -1198 -379 -330 -104 -869 -275 -1197 -379 -329 -104
-913 -289 -1298 -411 -385 -122 -968 -307 -1295 -410 -327 -104 -716 -227
-863 -273 -148 -47 -271 -88 -274 -91 -3 -2 2 -51 11 -108 9 -57 34 -228 56
-380 22 -153 58 -402 80 -553 22 -151 58 -399 80 -550 22 -151 58 -398 80
-547 22 -150 170 -1173 330 -2273 317 -2186 315 -2174 321 -2179 16 -12 280
-146 289 -146 7 0 73 39 147 86 74 48 291 183 480 301 332 205 346 213 365
197 15 -14 16 -20 6 -29 -17 -15 -871 -543 -893 -551 -13 -6 -15 -34 -13 -236
l3 -229 2734 -1655 c1504 -910 2738 -1653 2742 -1652 4 2 1205 1197 2669 2657
1677 1672 2669 2669 2683 2695 19 36 22 55 21 156 -1 66 -8 136 -16 165 -17
61 66 24 -783 341 -363 135 -846 315 -1072 400 -227 85 -599 223 -825 308
-473 176 -1644 614 -1916 716 l-183 69 -276 -171 c-152 -94 -281 -171 -287
-172 -45 -5 18 41 265 192 156 95 285 174 286 176 2 1 7 1169 13 2596 l11
2593 -23 24 c-48 51 -108 64 -187 41z"/>
</g>
</svg>
