<svg version="1.0" xmlns="http://www.w3.org/2000/svg"
     width="64pt" height="64pt" viewBox="0 0 1280 1280"
     preserveAspectRatio="xMidYMid meet">
    <g transform="translate(0,1280) scale(0.1,-0.1)"
       fill="#000000" stroke="none">
<path d="M5880 11912 c-133 -38 -241 -89 -435 -205 -298 -179 -465 -307 -668
-511 -136 -138 -138 -139 -175 -132 -20 3 -114 13 -207 22 -158 16 -181 16
-321 1 -442 -47 -802 -183 -1124 -423 -62 -46 -121 -84 -130 -84 -18 0 -31 8
-227 150 -285 206 -532 327 -735 361 -67 11 -83 11 -142 -5 -151 -41 -243
-154 -282 -347 -34 -168 13 -435 128 -724 58 -147 213 -429 325 -593 24 -36
43 -75 43 -90 0 -30 -158 -334 -277 -534 -102 -171 -227 -337 -267 -353 -40
-17 -92 -22 -376 -40 -414 -27 -564 -62 -728 -173 -196 -134 -310 -401 -273
-642 70 -446 482 -941 1006 -1207 485 -246 1081 -362 1582 -309 273 29 534 83
781 161 l113 36 227 -7 c240 -6 347 2 577 47 99 19 155 24 155 14 0 -22 -124
-173 -199 -243 -143 -133 -294 -233 -480 -318 -100 -46 -117 -58 -127 -84 -5
-17 -17 -37 -25 -44 -8 -8 -104 -50 -214 -94 -340 -135 -315 -133 -452 -31
-185 140 -326 208 -400 194 -60 -11 -123 -82 -123 -140 0 -67 94 -187 233
-299 27 -21 45 -42 40 -46 -4 -3 -51 -14 -104 -23 -216 -37 -401 -119 -506
-223 -88 -88 -104 -152 -53 -216 25 -33 95 -65 156 -73 56 -8 196 14 324 49
136 38 140 38 140 21 0 -8 -20 -40 -44 -69 -58 -72 -113 -170 -143 -259 -27
-81 -26 -121 7 -167 81 -114 250 -62 395 121 31 38 62 68 68 66 12 -4 17 -12
51 -89 31 -73 96 -142 151 -164 42 -16 45 -16 89 6 77 37 118 114 139 261 9
61 12 118 7 163 -9 85 -1 119 31 128 156 48 290 97 387 143 71 34 125 54 137
51 11 -3 28 -20 38 -37 21 -37 32 -37 157 12 95 36 222 118 336 217 45 38 91
75 102 81 20 11 22 9 22 -12 0 -14 -16 -59 -35 -100 -127 -281 -216 -605 -233
-852 l-7 -110 -106 -70 c-58 -39 -154 -111 -215 -160 -129 -106 -386 -355
-445 -431 -43 -57 -43 -54 -23 -152 4 -20 2 -38 -7 -48 -7 -8 -74 -59 -148
-112 -75 -53 -181 -134 -235 -179 -54 -46 -107 -83 -118 -83 -11 0 -79 21
-151 46 -453 157 -659 181 -908 104 -121 -38 -185 -79 -218 -143 -22 -44 -23
-51 -12 -90 50 -168 315 -408 712 -645 293 -176 583 -247 751 -185 96 36 140
74 281 251 194 240 361 396 500 463 l47 23 58 -28 c76 -38 159 -66 193 -66 18
0 47 15 81 43 106 85 176 136 323 234 178 119 255 163 281 163 11 0 72 -42
136 -92 302 -242 639 -375 965 -381 75 -2 93 -5 93 -17 0 -8 -12 -51 -26 -95
-57 -179 -78 -285 -78 -400 -1 -98 2 -117 27 -176 40 -96 36 -125 -37 -306
-74 -183 -108 -287 -142 -433 -14 -58 -27 -112 -30 -122 -6 -19 -12 -22 -123
-54 -259 -76 -497 -218 -676 -405 -160 -167 -221 -298 -184 -396 57 -152 222
-215 507 -193 70 6 222 17 337 25 640 47 809 85 923 208 120 132 157 297 167
757 7 330 16 426 51 570 30 120 35 128 110 193 161 137 354 417 534 777 32 64
66 120 74 123 9 4 88 -7 176 -23 550 -101 988 -104 1552 -9 914 153 1664 531
2193 1105 588 638 987 1391 1174 2219 133 589 151 1139 55 1665 -35 193 -76
350 -144 552 -123 366 -259 610 -436 779 -124 119 -232 176 -388 206 -72 14
-86 13 -145 -1 -79 -20 -292 -121 -439 -210 -173 -104 -489 -316 -598 -402
-418 -326 -789 -769 -1104 -1319 -303 -529 -411 -844 -565 -1636 -127 -653
-158 -790 -226 -999 -131 -399 -362 -745 -639 -955 -36 -27 -66 -53 -68 -57
-2 -4 -13 -8 -24 -8 -22 0 -23 -12 17 175 56 255 69 424 55 670 -9 156 -9 189
4 219 13 31 13 41 -5 103 -70 240 -232 681 -362 988 -171 403 -358 726 -574
993 -62 77 -83 110 -83 132 0 52 187 268 380 441 63 56 119 109 123 116 5 8 6
31 2 52 -5 33 -2 43 34 87 45 57 374 373 531 511 58 51 186 157 284 237 l180
146 60 0 c34 0 117 -9 186 -20 112 -18 131 -18 192 -5 136 28 221 83 264 171
44 91 13 167 -90 215 -88 41 -184 53 -359 45 -94 -4 -146 -3 -143 3 4 5 54 38
113 73 192 114 313 255 313 362 -1 113 -100 206 -220 206 -80 0 -223 -54 -264
-99 -21 -24 -56 -28 -56 -7 0 7 18 51 39 97 76 162 86 255 39 347 -62 123
-216 117 -344 -14 -83 -85 -142 -212 -209 -458 -9 -33 -20 -55 -25 -50 -5 5
-22 46 -38 91 -38 103 -81 167 -141 205 -38 24 -54 29 -89 25 -98 -11 -166
-97 -165 -212 1 -122 67 -300 168 -450 30 -45 55 -89 55 -98 0 -9 -36 -37 -92
-70 -168 -99 -375 -267 -604 -489 -78 -76 -147 -138 -153 -138 -6 0 -28 16
-50 35 -21 19 -45 35 -52 35 -20 0 -213 -131 -339 -229 -101 -79 -130 -94
-130 -68 0 7 11 48 25 92 157 495 153 972 -13 1450 -53 156 -99 257 -187 414
-36 64 -65 123 -65 130 0 7 33 81 74 164 174 356 228 661 176 1002 -41 274
-84 447 -137 548 -81 154 -232 217 -403 169z"/>
</g>
</svg>
